Coordinates
version=1
nRows=14
nColumns=24
inDegrees=yes

Units are S.I. units (second, meters, Newtons, ...)
Angles are in degrees.

endheader
time	pelvis_tilt	pelvis_list	pelvis_rotation	pelvis_tx	pelvis_ty	pelvis_tz	hip_flexion_r	hip_adduction_r	hip_rotation_r	knee_angle_r	ankle_angle_r	subtalar_angle_r	mtp_angle_r	hip_flexion_l	hip_adduction_l	hip_rotation_l	knee_angle_l	ankle_angle_l	subtalar_angle_l	mtp_angle_l	lumbar_extension	lumbar_bending	lumbar_rotation
      1.11766667	     -4.83310879	    -12.15786302	     -4.60143774	     -0.17692312	      0.98645065	      0.31039337	     -9.52600917	     13.84546414	     -3.58645754	     -5.87645531	      4.51878400	     -5.39615513	     -4.13532616	     29.70986566	    -14.05389249	    -11.56976537	      1.98891027	      1.25312615	     -0.67684522	     -2.29423398	     -6.68197343	     14.32317471	      9.17236261
      1.12183333	     -4.59816714	    -12.06776037	     -4.79147446	     -0.17108781	      0.98636350	      0.31055476	     -9.97728824	     13.62036627	     -3.39572865	     -6.22511360	      4.55990048	     -5.28973962	     -3.79560548	     29.36462156	    -14.06223200	    -11.60546297	      1.77895166	      1.24960877	     -0.74506446	     -1.96213315	     -6.96923419	     14.09570003	      9.44072173
      1.12600000	     -4.58109934	    -11.97824377	     -5.00709204	     -0.16520330	      0.98595086	      0.31073120	    -10.16430967	     13.40923169	     -3.23080088	     -6.64771169	      4.65112516	     -5.07575229	     -3.68074402	     29.26685541	    -14.07715314	    -11.52916435	      1.48134517	      1.14789975	     -0.99959109	     -1.86239612	     -6.98102721	     13.89924480	      9.56925112
      1.13016667	     -4.45821124	    -11.86910114	     -5.23655691	     -0.15933271	      0.98577473	      0.31095705	    -10.44895038	     13.16215180	     -3.02887509	     -7.08900170	      4.71230662	     -4.89824355	     -3.53815833	     29.03558654	    -14.08546182	    -11.49785326	      1.14179706	      1.02013488	     -1.30408097	     -1.74329849	     -7.12735887	     13.65814300	      9.80559322
      1.13433333	     -4.24090012	    -11.71196237	     -5.47208082	     -0.15335708	      0.98584334	      0.31124587	    -10.83599232	     12.85180804	     -2.81517737	     -7.51161487	      4.68934779	     -4.76643580	     -3.25754099	     28.67679874	    -14.05401106	    -11.56542689	      0.76377302	      0.91083926	     -1.59110522	     -1.51012723	     -7.36448664	     13.32684916	     10.16929913
      1.13850000	     -4.05273279	    -11.57247807	     -5.71965456	     -0.14744077	      0.98589246	      0.31151996	    -11.15480977	     12.55458568	     -2.60353964	     -8.00334703	      4.69067831	     -4.59603733	     -2.90515528	     28.35367209	    -14.04142874	    -11.60357171	      0.34601299	      0.71492949	     -1.95664002	     -1.22982454	     -7.58243822	     13.03267314	     10.45074648
      1.14266667	     -3.92686844	    -11.41670479	     -5.95438318	     -0.14145670	      0.98588106	      0.31177076	    -11.38788573	     12.24696117	     -2.43094440	     -8.52467036	      4.67864712	     -4.43697496	     -2.65172110	     28.09826720	    -14.00236680	    -11.62503056	     -0.09430751	      0.39465389	     -2.38509697	     -1.04179117	     -7.70153426	     12.72374040	     10.66102443
      1.14683333	     -3.77847202	    -11.26152750	     -6.18801492	     -0.13549267	      0.98594901	      0.31199535	    -11.61674203	     11.93281708	     -2.25951340	     -9.08956203	      4.64483773	     -4.27614525	     -2.42485289	     27.81221601	    -13.95908875	    -11.63704874	     -0.54929803	      0.06114970	     -2.85344877	     -0.88418884	     -7.85346283	     12.41274221	     10.87347004
      1.15100000	     -3.48549250	    -11.09368316	     -6.40344039	     -0.12951424	      0.98631334	      0.31214754	    -11.99356460	     11.57743702	     -2.10885326	     -9.63420937	      4.49587558	     -4.06818005	     -1.96423370	     27.35008552	    -13.88439493	    -11.70442451	     -0.99191826	     -0.28876903	     -3.32653618	     -0.57168805	     -8.18233186	     12.07514673	     11.21038774
      1.15516667	     -3.32321989	    -10.92241174	     -6.59885965	     -0.12348764	      0.98648100	      0.31228668	    -12.20170225	     11.24384146	     -1.99323337	    -10.23801170	      4.41054135	     -3.91228296	     -1.56880869	     27.04853374	    -13.79698910	    -11.72408777	     -1.46077431	     -0.75826853	     -3.87509722	     -0.32265656	     -8.32253471	     11.73120999	     11.41354201
      1.15933333	     -3.09684377	    -10.73807728	     -6.86310910	     -0.11749752	      0.98685616	      0.31253616	    -12.44369501	     10.87199515	     -1.80795442	    -10.89215357	      4.18221025	     -3.89069962	      3.30882290	     26.63802829	    -13.72774506	    -11.90369940	     -1.90293084	     -1.25959723	     -4.32066990	      2.70854007	     -8.57029926	     11.37799848	     11.63444843
      1.16350000	     -3.01090113	    -10.55473884	     -7.00225732	     -0.11143183	      0.98695868	      0.31244362	    -12.50600022	     10.52869833	     -1.81801799	    -11.59009559	      4.04026571	     -3.65779635	      3.34681254	     26.42598897	    -13.58382476	    -11.83433958	     -2.35736106	     -1.79926859	     -4.94838093	      2.71770586	     -8.60720209	     11.06612082	     11.71110143
      1.16766667	     -2.74389582	    -10.37055558	     -7.06649962	     -0.10535995	      0.98739087	      0.31218750	    -12.75751237	     10.16357491	     -1.88622560	    -12.25524226	      3.78026260	     -3.42606557	      3.48204810	     26.01141792	    -13.39057268	    -11.75793028	     -2.76649985	     -2.42817400	     -5.57835852	      2.76159849	     -8.85238016	     10.72755959	     11.88276508
      1.17183333	     -2.55690416	    -10.17964260	     -7.16855499	     -0.09930075	      0.98775741	      0.31200194	    -12.88360684	      9.79994592	     -1.91826943	    -12.99891925	      3.51628332	     -3.25311424	      3.65767137	     25.68004787	    -13.21308929	    -11.73616080	     -3.18733515	     -3.06008943	     -6.17729442	      2.80997048	     -9.00647533	     10.38999899	     11.98481983
